HIERARCHY
ROOT Hips
{
	OFFSET 0.00000 0.00000 0.00000
	CHANNELS 6 Xposition Yposition Zposition Zrotation Yrotation Xrotation 
	JOINT LHipJoint
	{
		OFFSET 0 0 0
		CHANNELS 3 Zrotation Yrotation Xrotation
		JOINT LeftUpLeg
		{
			OFFSET 1.57314 -1.85774 0.63783
			CHANNELS 3 Zrotation Yrotation Xrotation
			JOINT LeftLeg
			{
				OFFSET 2.57982 -7.08799 0.00000
				CHANNELS 3 Zrotation Yrotation Xrotation
				JOINT LeftFoot
				{
					OFFSET 2.63993 -7.25315 0.00000
					CHANNELS 3 Zrotation Yrotation Xrotation
					JOINT LeftToeBase
					{
						OFFSET 0.16864 -0.46332 2.12791
						CHANNELS 3 Zrotation Yrotation Xrotation
						End Site
						{
							OFFSET 0.00000 -0.00000 1.09718
						}
					}
				}
			}
		}
	}
	JOINT RHipJoint
	{
		OFFSET 0 0 0
		CHANNELS 3 Zrotation Yrotation Xrotation
		JOINT RightUpLeg
		{
			OFFSET -1.56006 -1.85774 0.63784
			CHANNELS 3 Zrotation Yrotation Xrotation
			JOINT RightLeg
			{
				OFFSET -2.54246 -6.98536 0.00000
				CHANNELS 3 Zrotation Yrotation Xrotation
				JOINT RightFoot
				{
					OFFSET -2.65791 -7.30256 0.00000
					CHANNELS 3 Zrotation Yrotation Xrotation
					JOINT RightToeBase
					{
						OFFSET -0.18435 -0.50650 2.16316
						CHANNELS 3 Zrotation Yrotation Xrotation
						End Site
						{
							OFFSET -0.00000 -0.00000 1.11780
						}
					}
				}
			}
		}
	}
	JOINT LowerBack
	{
		OFFSET 0 0 0
		CHANNELS 3 Zrotation Yrotation Xrotation
		JOINT Spine
		{
			OFFSET -0.00136 1.92812 -0.29638
			CHANNELS 3 Zrotation Yrotation Xrotation
			JOINT Spine1
			{
				OFFSET -0.00528 1.96223 -0.02928
				CHANNELS 3 Zrotation Yrotation Xrotation
				JOINT Neck
				{
					OFFSET 0 0 0
					CHANNELS 3 Zrotation Yrotation Xrotation
					JOINT Neck1
					{
						OFFSET -0.01015 1.75586 0.07797
						CHANNELS 3 Zrotation Yrotation Xrotation
						JOINT Head
						{
							OFFSET 0.05540 1.72452 0.04558
							CHANNELS 3 Zrotation Yrotation Xrotation
							End Site
							{
								OFFSET 0.02170 1.79958 0.00864
							}
						}
					}
				}
				JOINT LeftShoulder
				{
					OFFSET 0 0 0
					CHANNELS 3 Zrotation Yrotation Xrotation
					JOINT LeftArm
					{
						OFFSET 3.16292 1.29277 -0.65728
						CHANNELS 3 Zrotation Yrotation Xrotation
						JOINT LeftForeArm
						{
							OFFSET 5.52302 -0.00000 -0.00000
							CHANNELS 3 Zrotation Yrotation Xrotation
							JOINT LeftHand
							{
								OFFSET 3.58675 -0.00000 -0.00000
								CHANNELS 3 Zrotation Yrotation Xrotation
								JOINT LeftFingerBase
								{
									OFFSET 0 0 0
									CHANNELS 3 Zrotation Yrotation Xrotation
									JOINT LeftHandIndex1
									{
										OFFSET 0.53641 -0.00000 -0.00000
										CHANNELS 3 Zrotation Yrotation Xrotation
										End Site
										{
											OFFSET 0.43247 -0.00000 -0.00000
										}
									}
								}
								JOINT LThumb
								{
									OFFSET 0 0 0
									CHANNELS 3 Zrotation Yrotation Xrotation
									End Site
									{
										OFFSET 0.43907 -0.00000 0.43907
									}
								}
							}
						}
					}
				}
				JOINT RightShoulder
				{
					OFFSET 0 0 0
					CHANNELS 3 Zrotation Yrotation Xrotation
					JOINT RightArm
					{
						OFFSET -3.08296 1.43376 -0.52927
						CHANNELS 3 Zrotation Yrotation Xrotation
						JOINT RightForeArm
						{
							OFFSET -5.84780 -0.00000 0.00000
							CHANNELS 3 Zrotation Yrotation Xrotation
							JOINT RightHand
							{
								OFFSET -3.62717 -0.00000 -0.00000
								CHANNELS 3 Zrotation Yrotation Xrotation
								JOINT RightFingerBase
								{
									OFFSET 0 0 0
									CHANNELS 3 Zrotation Yrotation Xrotation
									JOINT RightHandIndex1
									{
										OFFSET -0.65052 -0.00000 -0.00000
										CHANNELS 3 Zrotation Yrotation Xrotation
										End Site
										{
											OFFSET -0.52446 -0.00000 -0.00000
										}
									}
								}
								JOINT RThumb
								{
									OFFSET 0 0 0
									CHANNELS 3 Zrotation Yrotation Xrotation
									End Site
									{
										OFFSET -0.53247 -0.00000 0.53247
									}
								}
							}
						}
					}
				}
			}
		}
	}
}
MOTION
Frames: 13
Frame Time: .0083333
0.0698 17.1484 -28.7254 0 0 0 0 0 0 -21 0 0 0 0 0 0 0 0 0 0 0 0 0 0 21 0 0 0 0 0 0 0 0 0 0 0 0 0 0 0 0 0 0 0 0 0 0 -16 0 0 21 0 0 11 0 0 0 -8 0 0 0 0 0 0 0 0 0 0 0 0 0 0 0 0 0 0 0 0 8 0 0 0 0 0 0 0 0 0 0 0 0 0 0 0 0 0
0.0698 17.1484 -28.7254 0.7929 -11.2637 2.7588 0.0000 0.0000 0.0000 -22.3935 12.3292 -1.3460 22.4402 19.8566 97.1512 1.2959 14.2395 21.2779 0.0114 0.6903 1.8970 0.0000 0.0000 0.0000 21.3029 17.4621 -27.9465 -6.3200 -14.7314 46.2528 -0.5108 -0.2298 -13.5880 -0.0674 -1.6754 4.6095 -4.3618 -1.3759 19.9439 1.3865 -2.6463 1.9474 4.7174 -1.0842 -8.7807 -0.7025 3.1029 -0.0759 -2.0411 3.8860 -14.1528 -0.7196 2.0346 -4.6368 -0.0000 0.0000 0.0000 -84.8782 8.7439 45.8675 119.1630 -56.5289 -84.9616 -0.0000 0.0000 -20.9361 37.1506 10.1539 7.6082 -7.1250 0.0000 -0.0000 9.1662 42.4611 -0.5795 -0.0000 0.0000 0.0000 77.8021 -9.2479 37.9068 -117.3698 56.9710 -83.4619 0.0000 -0.0000 -12.9307 -45.0092 23.2320 -21.5333 7.1250 -0.0000 -0.0000 -9.4892 0.9081 -9.7726
0.0635 17.0781 -28.2576 -0.2325 -11.8229 2.7367 0.0000 0.0000 0.0000 -19.9304 12.9219 -4.1264 23.9934 19.6133 101.7485 1.3267 11.4456 20.9279 0.0057 -0.4891 -1.3438 0.0000 0.0000 0.0000 22.6228 17.5400 -25.9822 -6.5198 -14.9138 47.0337 -0.6882 0.4808 -15.5188 -0.1515 -2.5084 6.9129 -3.4498 -1.0179 20.3587 1.4935 -1.9771 2.2816 4.1439 -0.8035 -8.7382 0.1496 3.0142 -0.8904 -2.3683 3.7650 -14.1161 -0.9542 1.9430 -4.4377 0.0000 -0.0000 0.0000 -84.7838 9.4729 45.4123 118.0434 -56.8092 -84.0262 -0.0000 0.0000 -20.6038 36.9374 10.5164 7.8136 -7.1250 0.0000 -0.0000 8.9896 42.8766 -0.4752 0.0000 -0.0000 0.0000 77.7875 -6.0253 38.6787 -118.0601 56.8051 -84.0401 0.0000 -0.0000 -12.7660 -45.5095 23.2215 -21.8687 7.1250 -0.0000 -0.0000 -9.7792 1.0936 -10.1115
0.0518 17.0397 -27.7742 -1.3207 -11.7362 3.0885 0.0000 0.0000 0.0000 -17.1868 12.9634 -7.5062 25.3958 19.2871 105.9585 1.4662 8.2454 21.6695 0.0107 -0.6687 -1.8376 0.0000 0.0000 0.0000 23.9366 16.9347 -24.3681 -6.5736 -14.9621 47.2427 -0.8529 0.8333 -17.1917 -0.1377 -2.3914 6.5887 -2.1619 -1.1455 19.9621 1.5009 -1.8521 2.5780 3.3569 -0.8047 -8.2504 0.6797 3.1104 -1.3370 -2.2778 3.9247 -13.9975 -1.0082 1.9897 -4.2952 -0.0000 0.0000 0.0000 -84.6556 10.5542 44.1383 117.3816 -56.9682 -83.4718 -0.0000 0.0000 -21.0795 35.3703 11.1217 7.7971 -7.1250 0.0000 -0.0000 7.5598 43.4061 -0.2992 -0.0000 0.0000 0.0000 77.9191 -2.6554 39.9292 -118.4578 56.7071 -84.3727 0.0000 -0.0000 -12.5669 -46.1960 23.4639 -22.5458 7.1250 -0.0000 -0.0000 -10.1118 1.6717 -10.5666
0.0393 17.0104 -27.2870 -2.2772 -10.9250 3.4612 0.0000 0.0000 0.0000 -14.7202 12.2102 -10.7568 26.6301 18.9117 109.7294 1.5101 5.6677 22.0778 0.0037 0.3949 1.0850 0.0000 0.0000 0.0000 25.0975 15.7628 -23.0276 -6.6442 -15.0248 47.5154 -1.0224 0.9120 -18.8301 -0.0408 -1.3043 3.5866 -0.8611 -1.5828 19.4221 1.5889 -2.1382 2.7753 2.7563 -0.9915 -7.7674 0.9482 3.2264 -1.4678 -2.2073 4.0983 -13.9473 -1.0323 2.0590 -4.2443 0.0000 -0.0000 0.0000 -84.6804 11.7197 42.9581 116.7514 -57.1152 -82.9430 -0.0000 0.0000 -21.7913 35.3857 11.4602 8.0328 -7.1250 0.0000 -0.0000 7.5815 43.8133 -0.2234 0.0000 -0.0000 0.0000 77.8688 0.5599 41.2855 -118.8368 56.6120 -84.6894 0.0000 -0.0000 -12.2174 -45.7410 23.2579 -22.0586 7.1250 -0.0000 -0.0000 -9.9030 1.2314 -10.2669
0.0257 16.9585 -26.8261 -2.8268 -9.8724 3.6433 0.0000 0.0000 0.0000 -13.3406 10.6248 -13.7941 27.7075 18.5116 113.0869 1.4225 4.3946 21.5391 0.0957 1.9951 5.4921 0.0000 0.0000 0.0000 25.9172 14.5419 -21.7976 -6.6955 -15.0700 47.7131 -1.1478 0.0503 -20.2460 -0.0052 -0.4664 1.2815 -0.4813 -1.9605 19.6480 2.0778 -2.5056 2.4744 3.1851 -1.1616 -8.1930 0.3600 3.2873 -0.7576 -2.1399 4.1774 -13.8699 -0.9262 2.1280 -4.3677 -0.0000 0.0000 0.0000 -85.4997 13.4939 41.9421 116.0513 -57.2735 -82.3546 -0.0000 0.0000 -22.9274 36.1082 9.9223 7.1640 -7.1250 0.0000 -0.0000 8.1996 42.0535 -0.6005 -0.0000 0.0000 0.0000 76.9681 2.7739 42.7813 -119.6627 56.3992 -85.3781 0.0000 -0.0000 -11.8621 -44.9208 22.9263 -21.2297 7.1250 -0.0000 -0.0000 -9.5123 0.4982 -9.7293
0.0166 16.9174 -26.3583 -2.9249 -8.9040 3.7353 0.0000 0.0000 0.0000 -12.8392 8.8774 -16.6203 28.5395 18.1532 115.7317 1.3124 3.7917 20.7405 0.2655 3.3145 9.1557 0.0000 0.0000 0.0000 26.3490 13.0565 -20.7129 -6.6961 -15.0705 47.7153 -1.1614 -2.0627 -21.1979 -0.1480 2.4791 -6.8317 -0.6918 -2.2326 19.9195 2.6149 -2.8497 2.0329 4.0147 -1.2936 -8.7674 -0.4590 3.2941 0.2056 -2.1879 4.1475 -13.7665 -0.8205 2.1604 -4.5384 -0.0000 0.0000 0.0000 -86.5198 15.4483 41.1185 116.6666 -57.1347 -82.8718 -0.0000 0.0000 -25.0368 35.9892 11.6924 8.3728 -7.1250 0.0000 -0.0000 8.1530 44.1738 -0.1674 -0.0000 0.0000 0.0000 75.8519 4.7093 44.2415 -120.4178 56.1976 -86.0063 0.0000 -0.0000 -11.6148 -44.6422 23.3053 -21.3416 7.1250 -0.0000 -0.0000 -9.2600 0.8546 -9.5217
0.0096 16.9002 -25.8721 -3.1180 -8.2337 3.9567 0.0000 0.0000 0.0000 -12.1741 7.5871 -19.6631 29.1523 17.8597 117.7141 1.2738 2.9201 20.5725 0.4160 4.1401 11.4712 0.0000 0.0000 0.0000 26.6477 12.1826 -18.7747 -6.6496 -15.0295 47.5361 -1.3967 -1.0742 -22.7497 -0.0283 1.0856 -2.9843 -0.4910 -2.2498 19.6455 2.8957 -2.8019 1.8659 4.1867 -1.2705 -8.8003 -0.6296 3.0911 0.0851 -2.4030 3.8510 -13.1931 -0.8372 2.0299 -4.3070 -0.0000 0.0000 0.0000 -86.8262 16.7159 41.0999 116.9649 -57.0659 -83.1222 -0.0000 0.0000 -27.2626 35.7595 11.6107 8.2469 -7.1250 0.0000 -0.0000 7.9350 44.0440 -0.1885 -0.0000 0.0000 0.0000 75.3578 6.9793 44.9361 -120.8623 56.0757 -86.3754 0.0000 -0.0000 -10.8961 -44.5457 23.4939 -21.4240 7.1250 -0.0000 -0.0000 -9.1589 1.0473 -9.4454
0.0033 16.9128 -25.3747 -3.4529 -7.8478 4.3691 0.0000 0.0000 0.0000 -11.5024 6.4445 -23.2465 29.5671 17.6462 119.0744 1.1014 1.2468 19.4631 0.2062 2.9238 8.0668 0.0000 0.0000 0.0000 27.1767 11.3054 -17.1766 -6.4998 -14.8958 46.9561 -1.4095 -2.2117 -23.3219 -0.1416 2.4256 -6.6834 0.1938 -1.9109 19.0758 2.8095 -2.2265 1.8878 3.5195 -1.0269 -8.5350 0.0793 2.5929 -1.1929 -2.6098 3.2099 -12.0949 -0.9594 1.6776 -3.6568 -0.0000 0.0000 0.0000 -85.9797 17.3056 42.1111 117.3041 -56.9865 -83.4069 -0.0000 0.0000 -29.5367 35.3077 11.7777 8.2258 -7.1250 0.0000 -0.0000 7.5143 44.1824 -0.1525 -0.0000 0.0000 0.0000 75.5106 9.1079 44.4772 -121.7079 55.8374 -87.0761 0.0000 -0.0000 -9.8750 -44.5439 23.7907 -21.6543 7.1250 -0.0000 -0.0000 -9.0857 1.4080 -9.4244
-0.0059 16.9320 -24.8950 -3.9298 -7.4242 4.6387 0.0000 0.0000 0.0000 -10.6776 5.2072 -26.6874 29.8235 17.5079 119.9233 0.8105 -0.7221 17.2870 0.0851 1.8819 5.1794 0.0000 0.0000 0.0000 27.9118 10.5225 -15.2737 -6.2708 -14.6858 46.0592 -1.3493 -3.1971 -23.2998 -0.3027 3.5376 -9.7792 0.7886 -1.6049 18.9136 2.8647 -1.6948 1.7940 3.0997 -0.7907 -8.5943 0.4699 2.1863 -1.6342 -2.6503 2.6777 -11.5871 -1.0099 1.3944 -3.3980 0.0000 0.0000 0.0000 -85.3624 18.0878 42.9185 117.8881 -56.8469 -83.8962 -0.0000 0.0000 -31.2915 35.2901 12.0896 8.4320 -7.1250 0.0000 -0.0000 7.5027 44.5525 -0.0834 0.0000 0.0000 0.0000 75.4238 10.4622 44.1128 -123.1479 55.4111 -88.2646 0.0000 -0.0000 -8.7286 -45.3600 25.0231 -23.1871 7.1250 -0.0000 -0.0000 -9.2437 3.2309 -9.8765
-0.0087 16.9716 -24.4118 -4.4509 -7.2070 4.7529 0.0000 0.0000 0.0000 -9.8386 4.2738 -29.6158 29.8722 17.4811 120.0855 0.5905 -2.6083 15.6958 0.0926 -1.9622 -5.4013 0.0000 0.0000 0.0000 28.6586 9.9652 -12.8411 -5.9596 -14.3891 44.8195 -1.3211 -2.8808 -22.9200 -0.3586 3.8473 -10.6475 1.2186 -1.3620 19.0092 3.0935 -1.2531 1.5555 3.0016 -0.5859 -8.9332 0.4287 2.0091 -1.3390 -2.6887 2.4423 -11.2893 -1.0100 1.2820 -3.3539 0.0000 0.0000 0.0000 -85.3392 19.4062 43.2720 118.8434 -56.6103 -84.6949 -0.0000 0.0000 -32.4843 35.4546 11.6877 8.2086 -7.1250 0.0000 -0.0000 7.6506 44.0949 -0.1720 0.0000 0.0000 0.0000 74.9940 11.2298 44.2937 -124.6353 54.9426 -89.4857 0.0000 -0.0000 -7.6751 -47.0940 26.5102 -25.6520 7.1250 -0.0000 -0.0000 -9.8218 5.7779 -10.9151
-0.0075 17.0516 -23.9029 -4.8881 -7.2108 4.7110 0.0000 0.0000 0.0000 -9.2771 3.4803 -31.9277 29.6726 17.5899 119.4230 0.4440 -4.4202 14.9896 0.2652 -3.3131 -9.1517 0.0000 0.0000 0.0000 29.2885 9.5124 -10.0473 -5.5897 -14.0186 43.3120 -1.2446 -2.2021 -21.9730 -0.3593 3.8509 -10.6575 1.8168 -0.9281 19.1150 3.0571 -0.5504 1.4528 2.4414 -0.2730 -9.1393 0.8141 1.7146 -1.7573 -2.6989 2.0673 -10.5452 -1.0537 1.0761 -3.0228 0.0000 -0.0000 0.0000 -84.6317 20.2978 44.0976 119.7752 -56.3695 -85.4718 -0.0000 0.0000 -33.4496 35.0002 11.5686 7.9933 -7.1250 0.0000 -0.0000 7.2230 43.8914 -0.1987 0.0000 -0.0000 0.0000 74.8915 11.8889 44.0335 -126.1914 54.4207 -90.7554 0.0000 -0.0000 -6.5960 -48.3360 27.1872 -27.1787 7.1250 -0.0000 -0.0000 -10.3166 7.1723 -11.7043
0.0035 17.1173 -23.3850 -4.9949 -7.2533 4.8081 0.0000 0.0000 0.0000 -9.3451 2.3845 -34.1412 29.3391 17.7651 118.3247 0.3264 -5.6632 14.3573 0.2821 -3.4163 -9.4399 0.0000 0.0000 0.0000 29.4254 9.1181 -7.2006 -5.1835 -13.5875 41.6094 -1.1747 -1.8093 -21.2018 -0.4348 4.2312 -11.7281 2.2664 -0.5090 18.9303 2.8523 0.0765 1.2968 1.7943 0.0034 -9.2251 1.0189 1.4493 -2.1447 -2.3788 1.7501 -9.9242 -0.9659 0.8978 -2.7477 0.0000 -0.0000 0.0000 -83.8976 21.0469 44.8167 120.3839 -56.2068 -85.9781 -0.0000 0.0000 -33.8793 34.6943 11.0921 7.5864 -7.1250 0.0000 -0.0000 6.9321 43.2841 -0.2951 0.0000 -0.0000 0.0000 74.9075 12.3044 43.7739 -128.0419 53.7554 -92.2542 0.0000 -0.0000 -6.1134 -46.5418 26.0942 -24.8998 7.1250 -0.0000 -0.0000 -9.6275 5.0296 -10.5793
